<svg viewBox="0 0 36 36" xmlns="http://www.w3.org/2000/svg"><path d="m36 27c0 2.209-1.791 4-4 4h-28c-2.209 0-4-1.791-4-4v-18c0-2.209 1.791-4 4-4h28c2.209 0 4 1.791 4 4z" fill="#060"/><path d="m32 5h-17v26h17c2.209 0 4-1.791 4-4v-18c0-2.209-1.791-4-4-4z" fill="#d52b1e"/><path d="m15 10c-4.418 0-8 3.582-8 8s3.582 8 8 8 8-3.582 8-8-3.582-8-8-8zm3.994 5.938 2.089-1.393c.491.863.803 1.839.888 2.881zm-2.994 8.062h2.592c-.779.467-1.655.786-2.592.92zm-7.971-6.574c.083-1.022.383-1.982.858-2.832l1.602 1.602zm0 1.147 3.747 1.874.447-.895-3.105-1.552 2.116-1.058 1.412 1.412.707-.707-1.176-1.176.046-.023-.447-.895-.344.172-.975-.975 1.461.244.164-.986-2.514-.419c1.084-1.333 2.65-2.253 4.432-2.508v11.919h-3.099l2.376-1.584-.555-.832-3 2 .014.021c-.959-1.097-1.582-2.492-1.707-4.032zm5.971 6.347c-.937-.135-1.813-.453-2.592-.92h2.592zm6.287-2.34-2.933-2.933-.707.707.471.471-.395.592 2.376 1.583h-3.099v-11.92c1.321.189 2.524.741 3.499 1.561l-2.657.886.316.948 3-1-.103-.308c.167.174.323.357.471.548l-2.804 1.869.278.416-.224.447 3.106 1.553-3.105 1.553.447.895 3.747-1.874c-.124 1.527-.737 2.913-1.684 4.006z" fill="#ffcc4d"/><path d="m11 13v7c0 2.209 1.791 4 4 4s4-1.791 4-4v-7z" fill="#d52b1e"/><path d="m12 14v6c0 1.656 1.343 3 3 3s3-1.344 3-3v-6z" fill="#fff"/><path d="m13 17h4v2h-4z" fill="#829acd"/><path d="m14 16h2v4h-2z" fill="#829acd"/><path d="m12 17h1v2h-1zm2 0h2v2h-2zm3 0h1v2h-1zm-3 3h2v2h-2zm0-6h2v2h-2z" fill="#039"/></svg>